<svg width="24" height="24" viewBox="0 0 24 24" fill="none" xmlns="http://www.w3.org/2000/svg">
<path d="M7 15.5C6.86739 15.5 6.74021 15.5527 6.64645 15.6464C6.55268 15.7402 6.5 15.8674 6.5 16C6.5 16.1326 6.55268 16.2598 6.64645 16.3536C6.74021 16.4473 6.86739 16.5 7 16.5H9C9.13261 16.5 9.25979 16.4473 9.35355 16.3536C9.44732 16.2598 9.5 16.1326 9.5 16C9.5 15.8674 9.44732 15.7402 9.35355 15.6464C9.25979 15.5527 9.13261 15.5 9 15.5H7Z" fill="white"/>
<path d="M3.5 10.8C3.5 10.134 3.5 9.607 3.531 9.178C3.564 8.738 3.631 8.366 3.781 8.013C4.02846 7.43257 4.42823 6.92984 4.938 6.558C5.248 6.333 5.595 6.184 6.017 6.054C6.428 5.927 6.941 5.808 7.589 5.659L11.032 4.864C12.016 4.637 12.787 4.459 13.409 4.372C14.041 4.284 14.577 4.279 15.076 4.441C15.8828 4.70172 16.5676 5.24646 17.003 5.974C17.146 6.213 17.246 6.472 17.316 6.757L17.339 6.767C17.7638 6.94278 18.1498 7.20052 18.4749 7.5255C18.8001 7.85047 19.058 8.23632 19.234 8.661C19.377 9.007 19.44 9.381 19.47 9.825C19.5 10.26 19.5 10.798 19.5 11.482V11.5H19C19.3978 11.5 19.7794 11.658 20.0607 11.9393C20.342 12.2206 20.5 12.6022 20.5 13C20.5 13.3978 20.342 13.7794 20.0607 14.0607C19.7794 14.342 19.3978 14.5 19 14.5H19.5V14.518C19.5 15.202 19.5 15.74 19.47 16.175C19.44 16.619 19.377 16.993 19.234 17.339C19.0581 17.7639 18.8002 18.1499 18.4751 18.4751C18.1499 18.8002 17.7639 19.0581 17.339 19.234C16.993 19.377 16.619 19.44 16.176 19.47C15.74 19.5 15.202 19.5 14.518 19.5H8.778C7.957 19.5 7.31 19.5 6.788 19.457C6.258 19.414 5.814 19.324 5.411 19.119C4.7522 18.7834 4.2166 18.2478 3.881 17.589C3.676 17.186 3.586 16.742 3.543 16.211C3.5 15.691 3.5 15.044 3.5 14.222V10.8ZM11.233 5.844L8.39 6.5H14.519C15.199 6.5 15.736 6.5 16.17 6.53L16.146 6.487C15.8351 5.96741 15.3461 5.57832 14.77 5.392C14.48 5.299 14.119 5.282 13.549 5.362C12.975 5.442 12.247 5.61 11.234 5.844M18.474 9.893C18.447 9.5 18.395 9.248 18.311 9.043C18.1827 8.73366 17.9935 8.45325 17.7547 8.21842C17.516 7.9836 17.2324 7.79914 16.921 7.676L16.765 7.636C16.261 7.506 15.562 7.5 14.285 7.5H8.8C7.952 7.5 7.345 7.5 6.87 7.54C6.401 7.578 6.104 7.65 5.865 7.772C5.36375 8.02788 4.96349 8.44539 4.729 8.957C4.633 9.181 4.573 9.46 4.539 9.87L4.526 10.055C4.50195 10.6363 4.49328 11.2182 4.5 11.8V14.2C4.5 15.048 4.5 15.655 4.54 16.13C4.578 16.599 4.65 16.896 4.772 17.135C5.01189 17.6053 5.39451 17.9875 5.865 18.227C6.104 18.349 6.401 18.422 6.87 18.461C7.345 18.5 7.952 18.5 8.8 18.5H14.5C15.206 18.5 15.71 18.5 16.107 18.473C16.5 18.446 16.752 18.394 16.957 18.31C17.2603 18.1844 17.5359 18.0002 17.7681 17.7681C18.0002 17.5359 18.1844 17.2603 18.31 16.957C18.394 16.752 18.446 16.5 18.473 16.107C18.5 15.71 18.5 15.206 18.5 14.5H17C16.6022 14.5 16.2206 14.342 15.9393 14.0607C15.658 13.7794 15.5 13.3978 15.5 13C15.5 12.6022 15.658 12.2206 15.9393 11.9393C16.2206 11.658 16.6022 11.5 17 11.5H18.5C18.5 10.794 18.5 10.29 18.473 9.893M17 12.5C16.8674 12.5 16.7402 12.5527 16.6464 12.6464C16.5527 12.7402 16.5 12.8674 16.5 13C16.5 13.1326 16.5527 13.2598 16.6464 13.3536C16.7402 13.4473 16.8674 13.5 17 13.5H19C19.1326 13.5 19.2598 13.4473 19.3536 13.3536C19.4473 13.2598 19.5 13.1326 19.5 13C19.5 12.8674 19.4473 12.7402 19.3536 12.6464C19.2598 12.5527 19.1326 12.5 19 12.5H17Z" fill="white"/>
</svg>
