<?xml version="1.0" encoding="UTF-8"?>
<!DOCTYPE svg PUBLIC "-//W3C//DTD SVG 1.1//EN" "http://www.w3.org/Graphics/SVG/1.1/DTD/svg11.dtd">
<!-- Creator: CorelDRAW 2020 (64-Bit) -->
<svg xmlns="http://www.w3.org/2000/svg" xml:space="preserve" width="203.159mm" height="119.817mm" version="1.1" style="shape-rendering:geometricPrecision; text-rendering:geometricPrecision; image-rendering:optimizeQuality; fill-rule:evenodd; clip-rule:evenodd"
viewBox="0 0 20169.96 11895.58"
 xmlns:xlink="http://www.w3.org/1999/xlink"
 xmlns:xodm="http://www.corel.com/coreldraw/odm/2003">
 <defs>
  <style type="text/css">
   <![CDATA[
    .fil0 {fill:none}
    .fil3 {fill:black}
    .fil1 {fill:#CECFD1}
    .fil4 {fill:#F5181F}
    .fil2 {fill:#F5181F}
   ]]>
  </style>
 </defs>
 <g id="Слой_x0020_1">
  <metadata id="CorelCorpID_0Corel-Layer"/>
  <g id="_1998871016096">
   <rect class="fil0" y="-0.01" width="20169.96" height="11895.58"/>
   <g>
    <path class="fil1" d="M3821.69 4662.89c-357.65,609.15 -792.3,845.06 -1303.95,707.68 490.36,-134.05 925,-369.95 1303.95,-707.68zm623.63 -520.01l486.24 671.29c-106.84,36.05 -211.3,79.62 -312.45,129.9l-441.62 -619.39c178.55,-121.21 267.83,-181.8 267.83,-181.8zm246.33 -1431.02c393.19,324.73 409.15,722.23 47.88,1192.52 156.77,-434.92 140.81,-832.45 -47.88,-1192.52z"/>
    <path class="fil2" d="M3731.08 6622.1l-520.3 -797.23c-1213.91,420.09 -2062.85,-1057.99 -951.57,-1951.36 109.22,-87.82 83.13,-42.69 86.84,-183.73 19.54,-740.87 490.26,-1065.36 1227.36,-1033.16 135.59,5.92 86.42,20.94 184.39,-69.04 583.48,-535.63 1475.14,-289.29 1771.08,412.88 152.03,360.72 70,759.54 -245.96,1151 210.11,327.05 418.3,673.1 643.84,991.95 -462.48,-67.44 -1016.04,60.46 -1505.09,439.32 -326.56,278.18 -563.47,649.88 -690.58,1039.37zm-47.17 -658.17c142.76,-234.65 321.67,-447.4 530.1,-624.96l5.66 -4.83 5.89 -4.56c322.73,-250.02 708.24,-428.08 1111.28,-494.78 -108.22,-169.8 -214.51,-340.87 -323.34,-510.28l-124.89 -194.4 145.12 -179.79c190.32,-235.8 325.48,-527.92 200.06,-825.53 -213.03,-505.44 -845,-681.86 -1259.45,-301.36 -164.25,150.8 -191.26,162.83 -414.91,153.06 -536.66,-23.44 -878.2,149.23 -893.29,721.7 -2.36,89.56 8.47,147.04 -33.36,237.89 -43.34,94.15 -99.46,127.88 -172.96,186.97 -356.98,286.99 -551.97,762.67 -253.19,1165.5 215.91,291.09 569.62,347.82 899.41,233.7l236.25 -81.76 341.6 523.42z"/>
    <path class="fil2" d="M3799.25 7996.61l-1167.71 -64.35 1098.33 -83.29c20.07,50.76 43.33,99.97 69.38,147.64zm-1093.64 -863.74l920.72 52.99c2.22,-51.59 6.61,-103.5 13.01,-155.56l-933.72 102.58z"/>
    <g>
     <path class="fil3" d="M6464.3 7795.12c-973.04,307.55 -1496.05,141.76 -1568.99,-497.39 0,0 642.64,0 1927.92,0 200.29,-802.47 103.9,-1290.22 -252.18,-1569.76 -430.96,-338.3 -1207.99,-341.67 -1855.22,159.71 -1176.3,1002.06 -1021.72,3396.95 1748.46,2522.72 0,-410.18 0,-615.28 0,-615.28zm-1430.73 -1067.27c693.91,0 1040.88,0 1040.88,0 61.44,-821.26 -842.29,-648.27 -1040.88,0z"/>
     <path class="fil3" d="M10761.21 4154.68c-502.52,2847.41 -753.8,4271.12 -753.8,4271.12 -820.77,264.66 -1575.2,324.9 -2059.24,14.52 -1167.36,-748.5 -243.31,-3484.5 1720.81,-2814.09 153.87,-878.46 230.8,-1317.71 230.8,-1317.71 574.28,-102.56 861.43,-153.85 861.43,-153.85zm-1458.67 3732.76c0,0 80.32,-512.74 240.99,-1538.23 -586.51,-476.9 -1192.22,238.97 -1213.19,892.23 -20.08,626.43 392.21,811.2 972.21,646z"/>
     <path class="fil3" d="M13207.04 8451.5c-9.45,-10.59 86.35,-537.33 287.06,-1580.26 288.41,-1498.43 -768.78,-1489.28 -2017.54,-1239.85 -10.27,423.86 -15.4,635.79 -15.4,635.79 420.6,-140.81 1466.22,-333.98 1229.41,450.01 -1692.51,-312.45 -2253.54,972.82 -1681.78,1590.46 122.44,132.25 376.39,218.07 593.5,268.69 517.54,120.68 1224.72,-56.6 1604.75,-124.85zm-708.78 -506.71c0,0 32.48,-217.77 97.43,-653.32 -525.14,-206.25 -865.21,69.31 -907.95,332.7 -46.48,286.47 249.82,563.62 810.53,320.62z"/>
     <path class="fil4" d="M16479.86 5378.67c-59.61,148.67 -193.88,287.12 -336.94,407.55 -234.85,197.7 -745.5,632.41 -1506.93,1306.17 -498.92,441.48 -1357.92,1475.04 -92.62,1459.41 312.64,-3.84 1058.76,-10.28 2188.71,-2.71 0,0 -63.22,349.62 -189.68,1048.83 0,0 324.73,0 974.21,0l183.87 -1048.8 638.68 0 88.71 -912.69 -567.37 0 426.59 -2433.2c0,0 -259.79,0.66 -779.37,1.98 44.4,-1656.26 -2087.57,-1695.2 -2835.42,-451.82 -346.28,632.6 -308.68,1222.26 112.8,1768.97 0,0 275.17,-239.28 825.52,-717.84 -305.69,-416.52 -99.44,-876.99 302.88,-970.8 370.04,-86.28 715.22,173.7 566.36,544.95zm433.88 2232.14c-1004.97,0 -1507.45,0 -1507.45,0 733.51,-554.6 1321.46,-1070.77 1763.83,-1548.49 -170.92,1032.32 -256.37,1548.49 -256.37,1548.49z"/>
    </g>
   </g>
  </g>
 </g>
</svg>
